<svg height="61" viewBox="0 0 61 61" width="61" xmlns="http://www.w3.org/2000/svg"><circle cx="30.35" cy="30.752" fill="#55acee" r="30"/><path d="m48.456 22.425c-1.193.53-2.477.886-3.819 1.048 1.374-.825 2.427-2.128 2.923-3.681-1.283.762-2.707 1.315-4.223 1.614-1.215-1.293-2.941-2.101-4.856-2.101-3.674 0-6.651 2.978-6.651 6.652 0 .521.059 1.029.172 1.516-5.529-.277-10.428-2.926-13.713-6.95-.571.981-.897 2.124-.897 3.344 0 2.308 1.173 4.345 2.958 5.536-1.09-.035-2.116-.333-3.013-.832-.002.027-.002.056-.002.085 0 3.223 2.293 5.911 5.337 6.522-.557.151-1.147.233-1.753.233-.429 0-.845-.041-1.251-.12.846 2.643 3.302 4.567 6.213 4.62-2.277 1.785-5.145 2.847-8.261 2.847-.536 0-1.065-.031-1.586-.093 2.942 1.888 6.44 2.989 10.196 2.989 12.234 0 18.927-10.136 18.927-18.926 0-.288-.006-.575-.019-.86 1.3-.939 2.427-2.109 3.318-3.443z" fill="#fff"/></svg>