<svg height="61" viewBox="0 0 61 61" width="61" xmlns="http://www.w3.org/2000/svg"><circle cx="30.35" cy="30.752" fill="#fff" r="30"/><path d="m21.548 13.74 1.527 4.918h.031l1.624-4.918h2.533l-3.003 7.715v5.007h-2.34v-5.007l-3.002-7.715z"/><path d="m29.916 16.626c2.692-.053 3.442 1.71 3.442 5.044 0 3.277-.878 5.04-3.442 5.04-2.696.054-3.445-1.709-3.445-5.04 0-3.278.88-5.044 3.445-5.044zm0 8.41c.908 0 1.201-.979 1.201-3.366s-.293-3.369-1.201-3.369c-1.106 0-1.205 1.409-1.205 3.369 0 1.959.099 3.366 1.205 3.366z"/><path d="m39.046 25.339h-.034c-.467.943-1.282 1.371-2.225 1.371-1.396 0-2.224-.837-2.224-2.725v-7.108h2.242v6.609c0 .962.293 1.337.958 1.337.763 0 1.185-.519 1.185-1.585v-6.361h2.239v9.585h-2.142v-1.123z"/><path d="m49.777 41.86c0 3.765-3.054 6.817-6.815 6.817h-25.75c-3.767 0-6.817-3.053-6.817-6.817v-6.436c0-3.767 3.051-6.816 6.817-6.816h25.75c3.762 0 6.815 3.05 6.815 6.816zm-34.36-10.294v2.104h2.532v10.618h2.341v-10.618h2.531v-2.104zm11.629 12.722h2.144v-9.585h-2.24v6.359c0 1.068-.419 1.587-1.186 1.587-.665 0-.957-.375-.957-1.338v-6.608h-2.243v7.108c0 1.888.83 2.727 2.227 2.727.941 0 1.755-.429 2.225-1.372h.031v1.122zm3.643 0h2.142v-1.015h.035c.485.89 1.104 1.265 1.98 1.265 1.835 0 2.679-1.479 2.679-5.042 0-3.564-.844-5.044-2.679-5.044-.846 0-1.414.375-1.885 1.141h-.031v-4.026h-2.241zm2.242-4.792c0-2.086.192-3.154 1.186-3.154.976 0 1.169 1.068 1.169 3.154 0 2.082-.193 3.153-1.169 3.153-.994 0-1.186-1.071-1.186-3.153zm12.231.375v-.553c0-2.941-.584-4.866-3.199-4.866-3.021 0-3.473 2.388-3.473 4.954 0 2.388.128 5.132 3.376 5.132 2.11 0 3.086-1.248 3.165-3.476h-2.011c-.13 1.177-.441 1.801-1.186 1.801-.829 0-1.106-1.104-1.106-2.227v-.766h4.434zm-4.434-1.462v-.375c0-.891.261-1.906 1.156-1.906.923 0 1.086.82 1.136 2.281z"/></svg>